<?xml version="1.0" encoding="UTF-8" standalone="no"?>
<svg width="438px" height="366px" viewBox="0 0 438 366" version="1.1" xmlns="http://www.w3.org/2000/svg" xmlns:xlink="http://www.w3.org/1999/xlink" xmlns:sketch="http://www.bohemiancoding.com/sketch/ns">
    <!-- Generator: Sketch 3.3.2 (12043) - http://www.bohemiancoding.com/sketch -->
    <title>ios-chatbubble-outline</title>
    <desc>Created with Sketch.</desc>
    <defs></defs>
    <g id="Page-1" stroke="none" stroke-width="1" fill="none" fill-rule="evenodd" sketch:type="MSPage">
        <g id="ios-chatbubble-outline" sketch:type="MSLayerGroup" fill="#BCB185">
            <path d="M218.597999,27.9173918 C322.309734,27.9173918 406.775992,94.2073665 406.775992,175.786803 C406.775992,214.170837 387.958193,249.774969 353.850932,276.184039 C318.781397,303.341545 271.095382,318.20333 219.667192,318.20333 C188.767511,318.20333 165.138342,314.99575 145.14443,308.259833 C144.502915,308.045995 143.754479,307.725237 143.006044,307.511398 C142.685286,307.404479 142.364528,307.29756 142.15069,307.29756 C137.125482,305.800689 131.779516,305.052254 126.43355,305.052254 C120.446069,305.052254 114.565507,306.014528 109.005702,307.832156 L109.005702,307.832156 L108.684944,307.939075 C108.043428,308.152914 99.1691253,311.467413 96.9238198,312.536606 L96.9238198,312.536606 L54.5837714,330.926728 C69.3386367,283.989149 69.3386367,283.026875 69.3386367,280.033134 C69.3386367,272.441863 66.9864118,264.957511 62.6027199,258.435433 C62.0681233,257.686998 61.5335268,256.938563 60.8920109,256.190127 C60.1435757,255.227854 59.5020598,254.372499 58.9674632,253.730983 C40.3635026,230.315653 30.5269257,203.371986 30.5269257,175.679884 C30.4200064,94.2073665 114.886265,27.9173918 218.597999,27.9173918 L218.597999,27.9173918 Z M0,176.910523 C0,211.945927 12.7816455,244.584772 34.6930378,271.974012 C35.7201344,273.001108 38.0025711,276.310642 38.8014239,277.565982 C38.8014239,277.565982 37.6602055,275.740032 37.5460837,275.397667 C40.1708859,279.163688 41.6544698,283.500317 41.6544698,288.179312 C41.6544698,289.777018 21.2266613,354.369977 21.2266613,354.369977 C19.7430775,359.391338 23.6232198,364.52682 29.8999208,365.78216 C30.8128954,366.010404 31.7258701,366.010404 32.6388448,366.010404 C34.1224287,366.010404 35.4918907,365.78216 36.8613527,365.439795 L38.6873021,364.755064 L96.4329506,339.64826 C97.4600471,339.191773 106.703916,335.653996 107.845134,335.197508 C111.725276,333.828046 116.061906,333.143315 120.62678,333.143315 C124.735166,333.143315 128.72943,333.713925 132.381329,334.855143 C133.180181,335.197508 133.750791,335.31163 134.3214,335.539874 C160.683544,344.555499 189.556368,347.294423 220.026898,347.294423 C340.996043,347.294423 437.999603,274.142327 437.999603,176.910523 C438.227846,79.6787199 340.083068,0.820531964 219.113923,0.820531964 C98.0306563,0.820531964 0,79.6787199 0,176.910523 Z" id="Shape" sketch:type="MSShapeGroup"></path>
        </g>
    </g>
</svg>